<svg width="959" height="431" viewBox="0 0 959 431" fill="none" xmlns="http://www.w3.org/2000/svg">
<g filter="url(#filter0_d_1_2)">
<path d="M798.475 102L789.666 215.008H749.92L745.838 102H798.475ZM791.385 248.094C791.385 251.245 790.776 254.181 789.559 256.902C788.341 259.624 786.694 261.987 784.617 263.992C782.612 266.069 780.249 267.68 777.527 268.826C774.806 270.044 771.906 270.652 768.826 270.652C765.675 270.652 762.739 270.044 760.018 268.826C757.296 267.68 754.897 266.069 752.82 263.992C750.815 261.987 749.204 259.624 747.986 256.902C746.84 254.181 746.268 251.245 746.268 248.094C746.268 245.014 746.84 242.078 747.986 239.285C749.204 236.492 750.815 234.093 752.82 232.088C754.897 230.011 757.296 228.364 760.018 227.146C762.739 225.929 765.675 225.32 768.826 225.32C771.906 225.32 774.806 225.929 777.527 227.146C780.249 228.364 782.612 230.011 784.617 232.088C786.694 234.093 788.341 236.492 789.559 239.285C790.776 242.078 791.385 245.014 791.385 248.094Z" fill="#E53935"/>
<path d="M798.475 102L789.666 215.008H749.92L745.838 102H798.475ZM791.385 248.094C791.385 251.245 790.776 254.181 789.559 256.902C788.341 259.624 786.694 261.987 784.617 263.992C782.612 266.069 780.249 267.68 777.527 268.826C774.806 270.044 771.906 270.652 768.826 270.652C765.675 270.652 762.739 270.044 760.018 268.826C757.296 267.68 754.897 266.069 752.82 263.992C750.815 261.987 749.204 259.624 747.986 256.902C746.84 254.181 746.268 251.245 746.268 248.094C746.268 245.014 746.84 242.078 747.986 239.285C749.204 236.492 750.815 234.093 752.82 232.088C754.897 230.011 757.296 228.364 760.018 227.146C762.739 225.929 765.675 225.32 768.826 225.32C771.906 225.32 774.806 225.929 777.527 227.146C780.249 228.364 782.612 230.011 784.617 232.088C786.694 234.093 788.341 236.492 789.559 239.285C790.776 242.078 791.385 245.014 791.385 248.094Z" stroke="black" stroke-width="12"/>
</g>
<g filter="url(#filter1_d_1_2)">
<path d="M733.123 206.629C733.123 216.44 731.404 224.926 727.967 232.088C724.601 239.178 719.946 245.05 714.002 249.705C708.13 254.288 701.219 257.69 693.27 259.91C685.392 262.059 676.906 263.133 667.811 263.133C664.301 263.133 660.434 262.667 656.209 261.736C652.055 260.805 647.83 259.66 643.533 258.299C639.236 256.867 635.083 255.363 631.072 253.787C627.133 252.14 623.624 250.6 620.545 249.168L625.271 207.059C631.359 210.711 638.09 213.504 645.467 215.438C652.915 217.299 660.219 218.23 667.381 218.23C668.742 218.23 670.389 218.195 672.322 218.123C674.256 217.98 676.082 217.658 677.801 217.156C679.591 216.583 681.095 215.76 682.312 214.686C683.53 213.611 684.139 212.072 684.139 210.066C684.139 208.706 683.709 207.56 682.85 206.629C681.99 205.626 680.88 204.839 679.52 204.266C678.159 203.621 676.619 203.156 674.9 202.869C673.182 202.511 671.499 202.26 669.852 202.117C668.204 201.974 666.665 201.902 665.232 201.902C663.8 201.902 662.654 201.902 661.795 201.902C655.636 201.902 650.014 200.936 644.93 199.002C639.917 197.068 635.584 194.347 631.932 190.838C628.351 187.257 625.558 182.96 623.553 177.947C621.548 172.863 620.545 167.241 620.545 161.082C620.545 152.632 622.228 145.076 625.594 138.416C629.031 131.684 633.579 125.991 639.236 121.336C644.965 116.609 651.518 112.993 658.895 110.486C666.271 107.98 673.898 106.727 681.775 106.727C685.285 106.727 688.901 106.87 692.625 107.156C696.349 107.371 700.037 107.801 703.689 108.445C707.413 109.09 711.03 109.913 714.539 110.916C718.048 111.919 721.378 113.172 724.529 114.676L720.447 158.289C715.577 156.642 710.457 155.281 705.086 154.207C699.786 153.061 694.594 152.488 689.51 152.488C688.579 152.488 687.361 152.524 685.857 152.596C684.425 152.596 682.885 152.703 681.238 152.918C679.663 153.061 678.051 153.312 676.404 153.67C674.757 154.028 673.289 154.529 672 155.174C670.711 155.747 669.673 156.535 668.885 157.537C668.097 158.54 667.739 159.721 667.811 161.082C667.882 162.658 668.455 163.875 669.529 164.734C670.675 165.594 672.107 166.238 673.826 166.668C675.617 167.026 677.55 167.205 679.627 167.205C681.775 167.205 683.888 167.169 685.965 167.098C688.042 166.954 689.975 166.847 691.766 166.775C693.556 166.632 695.024 166.596 696.17 166.668C701.899 167.026 707.055 168.243 711.639 170.32C716.222 172.397 720.089 175.154 723.24 178.592C726.463 182.029 728.898 186.147 730.545 190.945C732.264 195.672 733.123 200.9 733.123 206.629Z" fill="#E53935"/>
<path d="M733.123 206.629C733.123 216.44 731.404 224.926 727.967 232.088C724.601 239.178 719.946 245.05 714.002 249.705C708.13 254.288 701.219 257.69 693.27 259.91C685.392 262.059 676.906 263.133 667.811 263.133C664.301 263.133 660.434 262.667 656.209 261.736C652.055 260.805 647.83 259.66 643.533 258.299C639.236 256.867 635.083 255.363 631.072 253.787C627.133 252.14 623.624 250.6 620.545 249.168L625.271 207.059C631.359 210.711 638.09 213.504 645.467 215.438C652.915 217.299 660.219 218.23 667.381 218.23C668.742 218.23 670.389 218.195 672.322 218.123C674.256 217.98 676.082 217.658 677.801 217.156C679.591 216.583 681.095 215.76 682.312 214.686C683.53 213.611 684.139 212.072 684.139 210.066C684.139 208.706 683.709 207.56 682.85 206.629C681.99 205.626 680.88 204.839 679.52 204.266C678.159 203.621 676.619 203.156 674.9 202.869C673.182 202.511 671.499 202.26 669.852 202.117C668.204 201.974 666.665 201.902 665.232 201.902C663.8 201.902 662.654 201.902 661.795 201.902C655.636 201.902 650.014 200.936 644.93 199.002C639.917 197.068 635.584 194.347 631.932 190.838C628.351 187.257 625.558 182.96 623.553 177.947C621.548 172.863 620.545 167.241 620.545 161.082C620.545 152.632 622.228 145.076 625.594 138.416C629.031 131.684 633.579 125.991 639.236 121.336C644.965 116.609 651.518 112.993 658.895 110.486C666.271 107.98 673.898 106.727 681.775 106.727C685.285 106.727 688.901 106.87 692.625 107.156C696.349 107.371 700.037 107.801 703.689 108.445C707.413 109.09 711.03 109.913 714.539 110.916C718.048 111.919 721.378 113.172 724.529 114.676L720.447 158.289C715.577 156.642 710.457 155.281 705.086 154.207C699.786 153.061 694.594 152.488 689.51 152.488C688.579 152.488 687.361 152.524 685.857 152.596C684.425 152.596 682.885 152.703 681.238 152.918C679.663 153.061 678.051 153.312 676.404 153.67C674.757 154.028 673.289 154.529 672 155.174C670.711 155.747 669.673 156.535 668.885 157.537C668.097 158.54 667.739 159.721 667.811 161.082C667.882 162.658 668.455 163.875 669.529 164.734C670.675 165.594 672.107 166.238 673.826 166.668C675.617 167.026 677.55 167.205 679.627 167.205C681.775 167.205 683.888 167.169 685.965 167.098C688.042 166.954 689.975 166.847 691.766 166.775C693.556 166.632 695.024 166.596 696.17 166.668C701.899 167.026 707.055 168.243 711.639 170.32C716.222 172.397 720.089 175.154 723.24 178.592C726.463 182.029 728.898 186.147 730.545 190.945C732.264 195.672 733.123 200.9 733.123 206.629Z" stroke="black" stroke-width="12"/>
</g>
<g filter="url(#filter2_d_1_2)">
<path d="M609.75 158.074C609.75 163.66 609.249 168.745 608.246 173.328C607.315 177.84 605.811 181.993 603.734 185.789C601.658 189.585 598.972 193.094 595.678 196.316C592.383 199.539 588.409 202.618 583.754 205.555L609.32 251.102L560.98 260.555L544.438 214.793L531.117 215.223L529.184 259.91H482.992C483.35 243.582 483.673 227.326 483.959 211.141C484.317 194.956 484.711 178.699 485.141 162.371C485.284 154.135 485.427 145.971 485.57 137.879C485.714 129.786 486 121.622 486.43 113.387C491.443 111.525 496.384 109.985 501.254 108.768C506.124 107.55 510.993 106.619 515.863 105.975C520.805 105.258 525.782 104.793 530.795 104.578C535.88 104.292 541.072 104.148 546.371 104.148C554.535 104.148 562.413 105.294 570.004 107.586C577.667 109.806 584.434 113.172 590.307 117.684C596.179 122.195 600.87 127.817 604.379 134.549C607.96 141.281 609.75 149.122 609.75 158.074ZM561.625 161.512C561.625 158.504 561.195 155.747 560.336 153.24C559.548 150.734 558.331 148.585 556.684 146.795C555.108 144.933 553.103 143.501 550.668 142.498C548.305 141.424 545.512 140.887 542.289 140.887C540.857 140.887 539.46 140.994 538.1 141.209C536.739 141.352 535.414 141.603 534.125 141.961L532.406 181.922H534.984C538.064 181.922 541.179 181.528 544.33 180.74C547.553 179.952 550.417 178.735 552.924 177.088C555.502 175.441 557.579 173.328 559.154 170.75C560.801 168.172 561.625 165.092 561.625 161.512Z" fill="#E53935"/>
<path d="M609.75 158.074C609.75 163.66 609.249 168.745 608.246 173.328C607.315 177.84 605.811 181.993 603.734 185.789C601.658 189.585 598.972 193.094 595.678 196.316C592.383 199.539 588.409 202.618 583.754 205.555L609.32 251.102L560.98 260.555L544.438 214.793L531.117 215.223L529.184 259.91H482.992C483.35 243.582 483.673 227.326 483.959 211.141C484.317 194.956 484.711 178.699 485.141 162.371C485.284 154.135 485.427 145.971 485.57 137.879C485.714 129.786 486 121.622 486.43 113.387C491.443 111.525 496.384 109.985 501.254 108.768C506.124 107.55 510.993 106.619 515.863 105.975C520.805 105.258 525.782 104.793 530.795 104.578C535.88 104.292 541.072 104.148 546.371 104.148C554.535 104.148 562.413 105.294 570.004 107.586C577.667 109.806 584.434 113.172 590.307 117.684C596.179 122.195 600.87 127.817 604.379 134.549C607.96 141.281 609.75 149.122 609.75 158.074ZM561.625 161.512C561.625 158.504 561.195 155.747 560.336 153.24C559.548 150.734 558.331 148.585 556.684 146.795C555.108 144.933 553.103 143.501 550.668 142.498C548.305 141.424 545.512 140.887 542.289 140.887C540.857 140.887 539.46 140.994 538.1 141.209C536.739 141.352 535.414 141.603 534.125 141.961L532.406 181.922H534.984C538.064 181.922 541.179 181.528 544.33 180.74C547.553 179.952 550.417 178.735 552.924 177.088C555.502 175.441 557.579 173.328 559.154 170.75C560.801 168.172 561.625 165.092 561.625 161.512Z" stroke="black" stroke-width="12"/>
</g>
<g filter="url(#filter3_d_1_2)">
<path d="M467.545 106.727C467.115 113.458 466.721 120.118 466.363 126.707C466.005 133.296 465.54 139.956 464.967 146.688L419.42 149.051L418.346 162.586H450.357L447.994 195.887L415.768 196.961L414.693 212.645H441.334H460.24C459.811 220.522 459.345 228.364 458.844 236.17C458.414 243.904 458.02 251.674 457.662 259.48L365.064 261.629L368.502 106.727H467.545Z" fill="#E53935"/>
<path d="M467.545 106.727C467.115 113.458 466.721 120.118 466.363 126.707C466.005 133.296 465.54 139.956 464.967 146.688L419.42 149.051L418.346 162.586H450.357L447.994 195.887L415.768 196.961L414.693 212.645H441.334H460.24C459.811 220.522 459.345 228.364 458.844 236.17C458.414 243.904 458.02 251.674 457.662 259.48L365.064 261.629L368.502 106.727H467.545Z" stroke="black" stroke-width="12"/>
</g>
<g filter="url(#filter4_d_1_2)">
<path d="M280.379 108.016L279.305 153.562L247.293 154.852L239.129 256.688L193.797 259.051L194.012 157.215L162 158.934L163.289 108.23L280.379 108.016Z" fill="#E53935"/>
<path d="M280.379 108.016L279.305 153.562L247.293 154.852L239.129 256.688L193.797 259.051L194.012 157.215L162 158.934L163.289 108.23L280.379 108.016Z" stroke="black" stroke-width="12"/>
</g>
<g filter="url(#filter5_d_1_2)">
<path d="M350.805 110.379L338.988 256.688L293.656 259.051V113.387L350.805 110.379Z" fill="#E53935"/>
<path d="M350.805 110.379L338.988 256.688L293.656 259.051V113.387L350.805 110.379Z" stroke="black" stroke-width="12"/>
</g>
<g filter="url(#filter6_d_1_2)">
<path d="M682.627 291.27C685.406 291.27 687.888 291.564 690.052 292.177L690.449 292.283C692.391 292.821 694.023 293.577 695.258 294.607C696.607 295.629 697.543 296.962 697.543 298.618C697.543 299.65 697.259 300.614 696.669 301.457C696.166 302.255 695.465 302.858 694.6 303.251C694.128 303.466 693.578 303.422 693.147 303.134C692.54 302.73 691.721 302.277 690.67 301.78C690.641 301.766 690.613 301.751 690.584 301.735C689.697 301.242 688.597 300.826 687.265 300.506C687.247 300.502 687.228 300.498 687.21 300.493C685.927 300.133 684.489 299.946 682.885 299.946C680.542 299.946 678.813 300.4 677.579 301.177C676.451 301.887 675.957 302.792 675.956 304.036C675.956 304.905 676.237 305.662 676.843 306.363C677.489 306.99 678.609 307.575 680.39 307.994C680.395 307.995 680.401 307.996 680.406 307.998L686.324 309.456C690.377 310.409 693.596 311.968 695.813 314.242H695.814C698.091 316.519 699.177 319.505 699.177 323.042C699.177 327.135 697.646 330.459 694.547 332.833C691.488 335.176 687.213 336.238 681.939 336.238C677.447 336.238 673.648 335.561 670.626 334.113C670.619 334.109 670.611 334.106 670.604 334.102C667.807 332.704 665.647 330.84 665.647 328.288C665.647 327.338 665.888 326.432 666.346 325.591C666.353 325.579 666.36 325.566 666.368 325.554C666.917 324.613 667.699 323.879 668.671 323.355C669.172 323.086 669.782 323.123 670.247 323.45C671.701 324.473 673.419 325.43 675.411 326.315C677.253 327.134 679.391 327.562 681.853 327.562C684.713 327.562 686.595 327.072 687.723 326.313C688.746 325.625 689.297 324.618 689.297 323.042C689.297 321.717 688.899 320.772 688.188 320.061C688.168 320.041 688.15 320.021 688.131 320C687.425 319.211 686.277 318.552 684.519 318.138C684.506 318.135 684.492 318.132 684.479 318.128L677.34 316.236H677.339C673.702 315.338 670.837 313.916 668.957 311.835C668.952 311.83 668.947 311.824 668.942 311.818C667.071 309.68 666.163 307.052 666.163 304.036C666.163 300.531 667.608 297.503 670.353 295.013C673.207 292.425 677.396 291.27 682.627 291.27Z" fill="white" stroke="black" stroke-width="3" stroke-linejoin="round"/>
<path d="M652.881 275.79C654.264 275.79 655.602 276.06 656.575 276.898C657.687 277.743 658.08 279.045 658.08 280.386V327.084C658.08 328.41 657.763 329.64 657.005 330.65L657.005 330.649C656.384 331.495 655.462 332.244 654.352 332.922L654.351 332.921C653.043 333.764 651.28 334.49 649.13 335.132L649.13 335.133C646.83 335.879 644.232 336.238 641.358 336.238C637.056 336.238 633.197 335.49 629.815 333.953C626.375 332.389 623.676 329.939 621.745 326.638L621.739 326.627C619.792 323.235 618.874 318.969 618.874 313.926C618.874 308.781 619.758 304.463 621.642 301.071C621.646 301.065 621.65 301.06 621.653 301.054C623.565 297.724 626.154 295.24 629.421 293.664C632.624 292.062 636.124 291.27 639.896 291.27C642.275 291.27 644.549 291.606 646.71 292.285C647.228 292.448 647.725 292.622 648.2 292.808V277.892C648.2 277.278 648.573 276.727 649.142 276.499C649.547 276.337 650.066 276.206 650.644 276.089C651.383 275.892 652.129 275.79 652.881 275.79ZM640.584 299.946C638.461 299.946 636.519 300.41 634.734 301.328C634.724 301.333 634.713 301.339 634.703 301.344C633.029 302.157 631.64 303.537 630.56 305.594C629.511 307.593 628.925 310.391 628.925 314.098C628.925 319.102 630.137 322.433 632.239 324.444C634.426 326.479 637.384 327.562 641.272 327.562C643.189 327.562 644.649 327.367 645.708 327.032C646.624 326.712 647.454 326.353 648.2 325.955V302.105C647.587 301.721 646.893 301.361 646.11 301.033C646.092 301.026 646.073 301.018 646.055 301.01C644.575 300.319 642.766 299.946 640.584 299.946Z" fill="white" stroke="black" stroke-width="3" stroke-linejoin="round"/>
<path d="M592.87 291.27C598.294 291.27 602.758 292.519 606.086 295.196L606.409 295.455C609.697 298.174 611.227 302.254 611.227 307.39V333.448C611.227 334.061 610.853 334.613 610.284 334.84C609.866 335.007 609.31 335.139 608.692 335.253C607.999 335.452 607.281 335.55 606.544 335.55C605.146 335.55 603.826 335.303 602.825 334.575C602.783 334.544 602.742 334.512 602.703 334.477C601.701 333.575 601.346 332.288 601.346 330.954V307.734C601.346 304.803 600.518 302.959 599.149 301.846C599.143 301.841 599.136 301.837 599.13 301.832C597.697 300.63 595.667 299.946 592.87 299.946C590.699 299.946 588.824 300.218 587.225 300.734C585.874 301.17 584.704 301.651 583.706 302.169V333.448C583.706 334.061 583.333 334.612 582.764 334.84C582.361 335.001 581.845 335.133 581.27 335.25C580.56 335.454 579.809 335.55 579.025 335.55C577.665 335.55 576.382 335.296 575.39 334.575C575.367 334.558 575.344 334.541 575.323 334.523C574.235 333.633 573.826 332.331 573.826 330.954V301.628C573.826 300.247 574.088 298.972 574.737 297.917L574.752 297.893C575.433 296.834 576.495 295.918 577.805 295.107L577.845 295.083C579.465 294.148 581.551 293.31 584.064 292.548C586.705 291.688 589.646 291.27 592.87 291.27Z" fill="white" stroke="black" stroke-width="3" stroke-linejoin="round"/>
<path d="M547.587 291.27C551.302 291.27 554.632 292.063 557.527 293.7H557.526C560.462 295.326 562.754 297.62 564.38 300.558H564.379C566.065 303.446 566.888 306.741 566.888 310.4C566.888 311.844 566.566 313.235 565.589 314.212C565.571 314.231 565.551 314.25 565.532 314.267C564.667 315.046 563.549 315.441 562.328 315.583L562.329 315.583L537.473 319.06C538.165 321.313 539.251 323.086 540.692 324.433C542.983 326.465 546.168 327.562 550.424 327.562C552.664 327.562 554.645 327.189 556.389 326.471C558.259 325.701 559.669 324.906 560.668 324.107L560.764 324.036C561.256 323.703 561.903 323.69 562.41 324.012C563.183 324.504 563.823 325.125 564.296 325.879C564.882 326.66 565.169 327.569 565.169 328.546C565.168 330.286 564.145 331.707 562.694 332.829L562.686 332.835C561.282 333.906 559.453 334.719 557.276 335.324L557.275 335.323C555.113 335.939 552.71 336.238 550.081 336.238C545.485 336.238 541.408 335.402 537.895 333.676L537.886 333.671C534.406 331.931 531.691 329.34 529.768 325.928C529.763 325.919 529.758 325.909 529.753 325.9C527.89 322.422 526.995 318.267 526.995 313.496C526.995 310.09 527.473 307.016 528.462 304.297C528.464 304.292 528.465 304.286 528.467 304.28C529.502 301.541 530.918 299.188 532.731 297.25L532.749 297.231C534.622 295.295 536.84 293.829 539.387 292.834C541.926 291.786 544.665 291.27 547.587 291.27ZM547.501 299.86C544.359 299.86 541.812 300.979 539.752 303.241L539.751 303.24C538.171 304.978 537.156 307.415 536.823 310.672L557.183 307.908C556.798 305.712 555.896 303.93 554.508 302.501C554.504 302.496 554.499 302.491 554.494 302.486C552.887 300.784 550.622 299.86 547.501 299.86Z" fill="white" stroke="black" stroke-width="3" stroke-linejoin="round"/>
<path d="M513.684 291.958C515.04 291.958 516.348 292.239 517.311 293.081C518.426 293.94 518.797 295.283 518.797 296.64V333.448C518.797 334.061 518.423 334.613 517.853 334.841C517.451 335.002 516.935 335.132 516.36 335.249C515.651 335.453 514.899 335.55 514.115 335.55C512.756 335.55 511.473 335.297 510.48 334.575C510.457 334.558 510.435 334.541 510.413 334.523C509.326 333.634 508.917 332.331 508.917 330.954V294.06C508.917 293.447 509.29 292.896 509.859 292.668C510.268 292.504 510.793 292.37 511.378 292.252C512.123 292.055 512.893 291.958 513.684 291.958ZM513.856 275.532C515.535 275.532 517.013 276.096 518.136 277.299H518.135C519.213 278.395 519.743 279.774 519.743 281.332C519.743 282.906 519.204 284.307 518.136 285.452C518.124 285.464 518.112 285.477 518.099 285.489C516.97 286.619 515.503 287.132 513.856 287.132C512.245 287.132 510.81 286.606 509.651 285.524C509.639 285.513 509.626 285.501 509.614 285.489C508.476 284.351 507.885 282.938 507.885 281.332C507.885 279.824 508.407 278.496 509.438 277.434L509.651 277.225C510.798 276.097 512.231 275.532 513.856 275.532Z" fill="white" stroke="black" stroke-width="3" stroke-linejoin="round"/>
<path d="M495.036 291.27C497.406 291.27 499.407 291.559 500.867 292.289C501.619 292.664 502.272 293.179 502.735 293.873C503.203 294.576 503.416 295.375 503.416 296.21C503.416 296.936 503.307 297.642 503.081 298.319C503.076 298.336 503.069 298.353 503.063 298.371C502.837 298.972 502.527 299.523 502.123 300.008C501.771 300.431 501.215 300.627 500.676 300.519C500.153 300.414 499.448 300.305 498.549 300.193C497.693 300.086 496.837 300.032 495.983 300.032C493.45 300.032 491.272 300.308 489.429 300.834C489.416 300.838 489.403 300.842 489.39 300.845C487.859 301.239 486.578 301.694 485.529 302.197V333.448C485.529 334.061 485.155 334.612 484.586 334.84C484.184 335.001 483.667 335.133 483.092 335.25C482.383 335.454 481.631 335.55 480.847 335.55C479.487 335.55 478.205 335.296 477.212 334.575C477.189 334.558 477.167 334.541 477.145 334.523C476.058 333.633 475.649 332.331 475.649 330.954V301.8C475.649 300.335 475.899 298.99 476.559 297.917L476.575 297.893C477.244 296.852 478.26 295.939 479.513 295.125C481.18 294.036 483.371 293.157 486.021 292.448V292.447C488.757 291.656 491.766 291.27 495.036 291.27Z" fill="white" stroke="black" stroke-width="3" stroke-linejoin="round"/>
<path d="M461.811 274.5C465.179 274.5 467.982 274.938 470.101 275.932L470.1 275.933C472.142 276.864 473.802 278.303 473.802 280.472C473.802 281.314 473.613 282.117 473.218 282.854C472.905 283.54 472.456 284.159 471.901 284.715C471.427 285.188 470.697 285.29 470.112 284.965C469.241 284.481 468.097 284.065 466.645 283.742C466.628 283.738 466.611 283.735 466.594 283.73C465.155 283.357 463.791 283.176 462.498 283.176C459.121 283.176 457.213 283.884 456.271 284.865C455.283 285.894 454.624 287.722 454.624 290.706V294.624H470.153L470.328 294.635C470.733 294.682 471.105 294.893 471.353 295.224C471.673 295.651 471.905 296.21 472.091 296.768H472.09C472.327 297.421 472.426 298.134 472.426 298.876C472.426 300.038 472.133 301.152 471.36 302.022C471.34 302.044 471.32 302.066 471.299 302.087C470.477 302.909 469.384 303.214 468.26 303.214H454.71V333.448C454.71 334.061 454.337 334.613 453.768 334.841C453.366 335.002 452.85 335.132 452.276 335.249C451.566 335.453 450.814 335.55 450.029 335.55C448.669 335.55 447.386 335.297 446.394 334.575C446.371 334.558 446.349 334.54 446.327 334.522C445.24 333.633 444.831 332.332 444.831 330.954V290.362C444.831 286.819 445.459 283.806 446.841 281.437L446.847 281.426C448.27 279.033 450.29 277.273 452.866 276.175L453.355 275.969C455.824 274.975 458.654 274.5 461.811 274.5Z" fill="white" stroke="black" stroke-width="3" stroke-linejoin="round"/>
<path d="M385.014 275.79C386.363 275.79 387.663 276.069 388.625 276.9C389.735 277.745 390.126 279.046 390.126 280.386V293.472C390.499 293.297 390.883 293.123 391.279 292.95L391.755 292.744C394.156 291.75 396.849 291.27 399.806 291.27C404.848 291.27 409.113 292.644 412.473 295.497C415.948 298.447 417.561 302.858 417.561 308.422V333.448C417.561 334.061 417.187 334.613 416.618 334.841C416.201 335.007 415.646 335.137 415.03 335.252C414.336 335.451 413.617 335.55 412.878 335.55C411.48 335.55 410.16 335.304 409.159 334.575C409.117 334.545 409.076 334.511 409.038 334.477C408.035 333.574 407.68 332.288 407.68 330.954V308.594C407.68 305.434 406.793 303.369 405.283 302.081C405.277 302.076 405.271 302.071 405.266 302.066C403.702 300.692 401.614 299.946 398.861 299.946C396.829 299.946 394.948 300.334 393.204 301.102L392.553 301.41C391.662 301.852 390.855 302.336 390.126 302.855V333.448C390.126 334.061 389.753 334.613 389.184 334.841C388.782 335.002 388.266 335.132 387.692 335.249C386.982 335.453 386.23 335.55 385.445 335.55C384.085 335.55 382.802 335.297 381.81 334.575C381.787 334.558 381.765 334.541 381.743 334.523C380.655 333.634 380.247 332.332 380.247 330.954V277.892C380.247 277.278 380.621 276.727 381.19 276.499C381.594 276.337 382.113 276.206 382.691 276.089C383.441 275.889 384.217 275.79 385.014 275.79Z" fill="white" stroke="black" stroke-width="3" stroke-linejoin="round"/>
<path d="M352.93 280.262C354.279 280.262 355.579 280.541 356.541 281.372C357.651 282.217 358.042 283.518 358.042 284.858V293.248H370.647L370.822 293.258C371.227 293.306 371.598 293.517 371.846 293.848C372.166 294.275 372.399 294.834 372.585 295.392C372.811 296.069 372.92 296.775 372.92 297.5C372.92 298.662 372.627 299.777 371.854 300.647C371.063 301.536 369.995 301.924 368.84 301.924H358.042V322.784C358.042 324.789 358.606 325.873 359.395 326.466C360.376 327.141 361.838 327.562 363.939 327.562C364.741 327.562 365.689 327.42 366.794 327.104C367.92 326.782 368.804 326.421 369.472 326.039C370.059 325.704 370.798 325.803 371.277 326.282C371.738 326.742 372.134 327.291 372.474 327.904C372.903 328.677 373.092 329.537 373.092 330.438C373.092 332.439 371.853 333.894 370.068 334.855C368.27 335.823 365.924 336.238 363.164 336.238C358.934 336.238 355.338 335.3 352.496 333.298C352.492 333.295 352.487 333.292 352.483 333.288C349.496 331.135 348.163 327.637 348.162 323.214V282.364C348.163 281.75 348.536 281.199 349.106 280.971C349.51 280.809 350.029 280.678 350.607 280.561C351.357 280.361 352.133 280.262 352.93 280.262Z" fill="white" stroke="black" stroke-width="3" stroke-linejoin="round"/>
<path d="M332.53 291.958C333.886 291.958 335.193 292.239 336.157 293.081C337.272 293.94 337.642 295.283 337.642 296.64V333.448C337.642 334.061 337.269 334.613 336.699 334.841C336.297 335.002 335.78 335.132 335.206 335.249C334.496 335.453 333.745 335.55 332.961 335.55C331.601 335.55 330.318 335.297 329.326 334.575C329.303 334.558 329.281 334.541 329.259 334.523C328.171 333.634 327.763 332.331 327.763 330.954V294.06C327.763 293.447 328.136 292.896 328.705 292.668C329.114 292.504 329.642 292.369 330.228 292.251C330.972 292.055 331.741 291.958 332.53 291.958ZM332.702 275.532C334.381 275.532 335.859 276.096 336.981 277.299H336.98C338.058 278.395 338.589 279.774 338.589 281.332C338.589 282.906 338.05 284.307 336.981 285.452C336.97 285.464 336.957 285.477 336.945 285.489C335.816 286.619 334.349 287.132 332.702 287.132C331.091 287.132 329.656 286.606 328.497 285.524C328.484 285.513 328.472 285.501 328.46 285.489C327.322 284.351 326.73 282.938 326.73 281.332C326.73 279.824 327.253 278.496 328.284 277.434L328.497 277.225C329.644 276.097 331.077 275.532 332.702 275.532Z" fill="white" stroke="black" stroke-width="3" stroke-linejoin="round"/>
<path d="M315.632 291.614C316.835 291.614 317.976 291.899 318.891 292.631C319.928 293.461 320.314 294.682 320.314 295.952C320.314 296.769 320.074 298.116 319.684 299.848L319.685 299.849C319.333 301.668 318.837 303.794 318.201 306.222C317.568 308.64 316.848 311.226 316.045 313.981C315.296 316.691 314.517 319.344 313.71 321.939L313.707 321.949C312.9 324.486 312.12 326.798 311.367 328.884C310.678 330.95 310.061 332.598 309.518 333.805C309.42 334.022 309.273 334.213 309.087 334.361C308.554 334.787 307.832 335.047 307.114 335.23C306.303 335.512 305.406 335.636 304.452 335.636C303.186 335.636 302.041 335.492 301.104 335.122C300.144 334.741 299.316 334.08 298.926 333.045V333.046C298.113 330.955 297.188 328.382 296.151 325.331L296.149 325.322C295.113 322.213 294.048 318.876 292.956 315.311L292.954 315.305C292.348 313.294 291.74 311.283 291.134 309.271C290.513 311.296 289.866 313.322 289.191 315.346L289.19 315.345C288.043 318.96 286.924 322.349 285.832 325.51C284.737 328.678 283.726 331.425 282.797 333.747C282.679 334.042 282.469 334.293 282.199 334.462C281.616 334.826 280.975 335.109 280.287 335.315C279.514 335.547 278.575 335.636 277.534 335.636C276.443 335.636 275.4 335.432 274.416 335.019V335.02C273.34 334.606 272.512 333.86 272.05 332.799C271.436 331.565 270.756 329.839 270.009 327.656C270.005 327.645 270.002 327.633 269.998 327.622C269.305 325.427 268.555 322.919 267.75 320.1C267.747 320.091 267.745 320.082 267.742 320.073C266.997 317.266 266.224 314.372 265.422 311.392L265.42 311.385C264.615 308.339 263.867 305.405 263.177 302.587C263.174 302.577 263.173 302.568 263.171 302.558C262.539 299.744 261.993 297.244 261.532 295.057C261.428 294.561 261.581 294.046 261.939 293.687C262.441 293.185 263.03 292.74 263.69 292.344L263.744 292.313C264.635 291.828 265.637 291.614 266.698 291.614C268.049 291.614 269.325 292.009 270.213 293.049C271.064 293.928 271.527 295.189 271.776 296.584L272.595 300.437C272.88 301.793 273.18 303.226 273.493 304.737L274.524 309.27C274.868 310.774 275.212 312.271 275.556 313.76C276.299 316.733 276.956 319.422 277.529 321.828C277.606 322.115 277.679 322.394 277.751 322.663C277.983 321.933 278.238 321.135 278.511 320.269C279.488 317.107 280.637 313.518 281.957 309.502L281.963 309.483C283.337 305.474 284.712 301.408 286.087 297.284L286.134 297.162C286.254 296.884 286.456 296.648 286.715 296.486C287.341 296.095 288.047 295.839 288.803 295.694C289.563 295.492 290.367 295.398 291.208 295.398C292.417 295.398 293.546 295.631 294.516 296.188C295.529 296.713 296.232 297.556 296.58 298.641H296.581C297.961 302.609 299.256 306.52 300.464 310.375L302.164 315.757C302.694 317.447 303.189 319.038 303.647 320.529L304.288 322.587C304.3 322.627 304.312 322.667 304.324 322.707C305.316 318.897 306.364 314.896 307.474 310.704C309.011 304.895 310.264 299.205 311.23 293.632L311.265 293.479C311.364 293.129 311.588 292.825 311.896 292.627C312.986 291.926 314.256 291.614 315.632 291.614Z" fill="white" stroke="black" stroke-width="3" stroke-linejoin="round"/>
</g>
<defs>
<filter id="filter0_d_1_2" x="737.617" y="96" width="73.3433" height="188.652" filterUnits="userSpaceOnUse" color-interpolation-filters="sRGB">
<feFlood flood-opacity="0" result="BackgroundImageFix"/>
<feColorMatrix in="SourceAlpha" type="matrix" values="0 0 0 0 0 0 0 0 0 0 0 0 0 0 0 0 0 0 127 0" result="hardAlpha"/>
<feOffset dx="2" dy="4"/>
<feGaussianBlur stdDeviation="2"/>
<feComposite in2="hardAlpha" operator="out"/>
<feColorMatrix type="matrix" values="0 0 0 0 0 0 0 0 0 0 0 0 0 0 0 0 0 0 0.25 0"/>
<feBlend mode="normal" in2="BackgroundImageFix" result="effect1_dropShadow_1_2"/>
<feBlend mode="normal" in="SourceGraphic" in2="effect1_dropShadow_1_2" result="shape"/>
</filter>
<filter id="filter1_d_1_2" x="612.101" y="100.727" width="133.022" height="176.406" filterUnits="userSpaceOnUse" color-interpolation-filters="sRGB">
<feFlood flood-opacity="0" result="BackgroundImageFix"/>
<feColorMatrix in="SourceAlpha" type="matrix" values="0 0 0 0 0 0 0 0 0 0 0 0 0 0 0 0 0 0 127 0" result="hardAlpha"/>
<feOffset dx="2" dy="4"/>
<feGaussianBlur stdDeviation="2"/>
<feComposite in2="hardAlpha" operator="out"/>
<feColorMatrix type="matrix" values="0 0 0 0 0 0 0 0 0 0 0 0 0 0 0 0 0 0 0.25 0"/>
<feBlend mode="normal" in2="BackgroundImageFix" result="effect1_dropShadow_1_2"/>
<feBlend mode="normal" in="SourceGraphic" in2="effect1_dropShadow_1_2" result="shape"/>
</filter>
<filter id="filter2_d_1_2" x="474.859" y="98.1484" width="149.753" height="177.281" filterUnits="userSpaceOnUse" color-interpolation-filters="sRGB">
<feFlood flood-opacity="0" result="BackgroundImageFix"/>
<feColorMatrix in="SourceAlpha" type="matrix" values="0 0 0 0 0 0 0 0 0 0 0 0 0 0 0 0 0 0 127 0" result="hardAlpha"/>
<feOffset dx="2" dy="4"/>
<feGaussianBlur stdDeviation="2"/>
<feComposite in2="hardAlpha" operator="out"/>
<feColorMatrix type="matrix" values="0 0 0 0 0 0 0 0 0 0 0 0 0 0 0 0 0 0 0.25 0"/>
<feBlend mode="normal" in2="BackgroundImageFix" result="effect1_dropShadow_1_2"/>
<feBlend mode="normal" in="SourceGraphic" in2="effect1_dropShadow_1_2" result="shape"/>
</filter>
<filter id="filter3_d_1_2" x="356.927" y="100.727" width="123.013" height="175.046" filterUnits="userSpaceOnUse" color-interpolation-filters="sRGB">
<feFlood flood-opacity="0" result="BackgroundImageFix"/>
<feColorMatrix in="SourceAlpha" type="matrix" values="0 0 0 0 0 0 0 0 0 0 0 0 0 0 0 0 0 0 127 0" result="hardAlpha"/>
<feOffset dx="2" dy="4"/>
<feGaussianBlur stdDeviation="2"/>
<feComposite in2="hardAlpha" operator="out"/>
<feColorMatrix type="matrix" values="0 0 0 0 0 0 0 0 0 0 0 0 0 0 0 0 0 0 0.25 0"/>
<feBlend mode="normal" in2="BackgroundImageFix" result="effect1_dropShadow_1_2"/>
<feBlend mode="normal" in="SourceGraphic" in2="effect1_dropShadow_1_2" result="shape"/>
</filter>
<filter id="filter4_d_1_2" x="153.837" y="102.004" width="138.685" height="171.368" filterUnits="userSpaceOnUse" color-interpolation-filters="sRGB">
<feFlood flood-opacity="0" result="BackgroundImageFix"/>
<feColorMatrix in="SourceAlpha" type="matrix" values="0 0 0 0 0 0 0 0 0 0 0 0 0 0 0 0 0 0 127 0" result="hardAlpha"/>
<feOffset dx="2" dy="4"/>
<feGaussianBlur stdDeviation="2"/>
<feComposite in2="hardAlpha" operator="out"/>
<feColorMatrix type="matrix" values="0 0 0 0 0 0 0 0 0 0 0 0 0 0 0 0 0 0 0.25 0"/>
<feBlend mode="normal" in2="BackgroundImageFix" result="effect1_dropShadow_1_2"/>
<feBlend mode="normal" in="SourceGraphic" in2="effect1_dropShadow_1_2" result="shape"/>
</filter>
<filter id="filter5_d_1_2" x="285.656" y="104.027" width="77.681" height="169.345" filterUnits="userSpaceOnUse" color-interpolation-filters="sRGB">
<feFlood flood-opacity="0" result="BackgroundImageFix"/>
<feColorMatrix in="SourceAlpha" type="matrix" values="0 0 0 0 0 0 0 0 0 0 0 0 0 0 0 0 0 0 127 0" result="hardAlpha"/>
<feOffset dx="2" dy="4"/>
<feGaussianBlur stdDeviation="2"/>
<feComposite in2="hardAlpha" operator="out"/>
<feColorMatrix type="matrix" values="0 0 0 0 0 0 0 0 0 0 0 0 0 0 0 0 0 0 0.25 0"/>
<feBlend mode="normal" in2="BackgroundImageFix" result="effect1_dropShadow_1_2"/>
<feBlend mode="normal" in="SourceGraphic" in2="effect1_dropShadow_1_2" result="shape"/>
</filter>
<filter id="filter6_d_1_2" x="258" y="273" width="448.677" height="72.738" filterUnits="userSpaceOnUse" color-interpolation-filters="sRGB">
<feFlood flood-opacity="0" result="BackgroundImageFix"/>
<feColorMatrix in="SourceAlpha" type="matrix" values="0 0 0 0 0 0 0 0 0 0 0 0 0 0 0 0 0 0 127 0" result="hardAlpha"/>
<feOffset dx="2" dy="4"/>
<feGaussianBlur stdDeviation="2"/>
<feComposite in2="hardAlpha" operator="out"/>
<feColorMatrix type="matrix" values="0 0 0 0 0 0 0 0 0 0 0 0 0 0 0 0 0 0 0.25 0"/>
<feBlend mode="normal" in2="BackgroundImageFix" result="effect1_dropShadow_1_2"/>
<feBlend mode="normal" in="SourceGraphic" in2="effect1_dropShadow_1_2" result="shape"/>
</filter>
</defs>
</svg>
